<?xml version="1.0" encoding="UTF-8"?>
<svg version="1.1" xmlns="http://www.w3.org/2000/svg" width="45" height="55">
<path d="M0 0 C0.99 0 1.98 0 3 0 C2.34235156 2.76708685 1.52391376 5.42825871 0.625 8.125 C-0.86834759 13.06849548 -1.82210906 18.04199979 -2.6875 23.125 C-2.81882324 23.87668457 -2.95014648 24.62836914 -3.08544922 25.40283203 C-3.20549316 26.13872559 -3.32553711 26.87461914 -3.44921875 27.6328125 C-3.55580811 28.28137207 -3.66239746 28.92993164 -3.7722168 29.59814453 C-4.10171156 33.07249554 -4.03222995 36.51047934 -4 40 C0.96622349 40.02465098 5.93241166 40.04283649 10.89868164 40.05493164 C12.58944316 40.0599719 14.28020029 40.06680405 15.97094727 40.07543945 C18.39600707 40.08751857 20.82100944 40.09323123 23.24609375 40.09765625 C24.00651474 40.10281754 24.76693573 40.10797882 25.55039978 40.11329651 C27.3673257 40.11349238 29.18413127 40.06197277 31 40 C32.26591221 38.9677565 32.26591221 38.9677565 32.01953125 36.7265625 C31.54745721 29.65435889 30.50887369 22.87133184 29.0625 15.9375 C28.89274658 15.11652832 28.72299316 14.29555664 28.5480957 13.44970703 C27.62453537 9.06146691 27.62453537 9.06146691 25.93530273 4.93188477 C25 3 25 3 25 0 C26.89916992 0.29321289 26.89916992 0.29321289 29 1 C32.1060401 7.37001444 33.08643611 14.10908874 34.1875 21.0625 C34.36474609 22.11244141 34.54199219 23.16238281 34.72460938 24.24414062 C37.03474341 38.41712508 37.03474341 38.41712508 34 44 C28.82219834 44.04954105 23.64453554 44.08578636 18.46655273 44.10986328 C16.70611161 44.11990351 14.94568709 44.13353844 13.18530273 44.15087891 C10.65083715 44.17521436 8.11659261 44.18650296 5.58203125 44.1953125 C4.79850784 44.20563507 4.01498444 44.21595764 3.2077179 44.22659302 C-4.52805219 44.22817135 -4.52805219 44.22817135 -8 42 C-9.36998308 38.35310503 -8.93636995 35.18331069 -8.328125 31.39453125 C-8.15796875 30.32783203 -7.9878125 29.26113281 -7.8125 28.16210938 C-7.626875 27.05673828 -7.44125 25.95136719 -7.25 24.8125 C-6.99476562 23.18344727 -6.99476562 23.18344727 -6.734375 21.52148438 C-3.84701409 3.84701409 -3.84701409 3.84701409 0 0 Z " fill="#00c6ff" transform="translate(9,11)"/>
<path d="M0 0 C3.06162534 2.58537251 4.72814166 4.18442498 6 8 C6.06937062 10.22818441 6.08457084 12.45834524 6.0625 14.6875 C6.05347656 15.86699219 6.04445313 17.04648437 6.03515625 18.26171875 C6.02355469 19.16535156 6.01195313 20.06898437 6 21 C5.01 21 4.02 21 3 21 C2.67 18.36 2.34 15.72 2 13 C-1.96 13 -5.92 13 -10 13 C-10.33 15.64 -10.66 18.28 -11 21 C-11.99 21 -12.98 21 -14 21 C-15.00856731 17.0600572 -14.94596714 13.94608009 -14.3125 9.9375 C-14.16425781 8.91527344 -14.01601562 7.89304687 -13.86328125 6.83984375 C-12.8561654 3.52684275 -11.67888586 2.15205487 -9 0 C-5.37580435 -1.20806522 -3.66716248 -1.0268055 0 0 Z M-8.25 4.1875 C-10.57882876 6.17959196 -10.57882876 6.17959196 -10 11 C-6.04 11 -2.08 11 2 11 C1.73343428 8.06556598 1.73343428 8.06556598 1 5 C-2.49453281 2.67031146 -4.44431333 2.17894315 -8.25 4.1875 Z " fill="#00c6ff" transform="translate(27,1)"/>
</svg>
